<svg id="Capa_1" xmlns="http://www.w3.org/2000/svg" viewBox="198 -222 512 512"><style>.st0{fill:#e1d454}</style><path class="st0" d="M638-140.3H366c-4.4 0-8-3.6-8-8s3.6-8 8-8h272c4.4 0 8 3.6 8 8s-3.6 8-8 8zm0 96h-16c-4.4 0-8-3.6-8-8s3.6-8 8-8h16c4.4 0 8 3.6 8 8s-3.6 8-8 8zm0 48c-2.1 0-4.2-.9-5.7-2.4S630-2.2 630-4.3c0-2.1.8-4.2 2.3-5.7s3.6-2.3 5.7-2.3 4.2.9 5.7 2.3c1.5 1.5 2.3 3.6 2.3 5.7s-.8 4.2-2.3 5.6c-1.5 1.5-3.6 2.4-5.7 2.4zm0-96H494c-4.4 0-8-3.6-8-8s3.6-8 8-8h144c4.4 0 8 3.6 8 8s-3.6 8-8 8zm-176 0h-96c-4.4 0-8-3.6-8-8s3.6-8 8-8h96c4.4 0 8 3.6 8 8s-3.6 8-8 8z"/><path class="st0" d="M654 128.3c-4.2 0-8.2-1.6-11.3-4.7l-10.3-10.3c-3.1-3.1-3.1-8.2 0-11.3 3.1-3.1 8.2-3.1 11.3 0l10.3 10.3V58.9c0-3.9 2.8-7.2 6.7-7.9 19-3.2 33.3-20.2 33.3-39.4v-176c0-22.1-17.9-40-40-40H350c-22.1 0-40 17.9-40 40v80c0 4.4-3.6 8-8 8s-8-3.6-8-8v-80c0-30.9 25.1-56 56-56h304c30.9 0 56 25.1 56 56v176c0 25.1-16.5 46.6-40 53.6v47.1c0 6.5-3.9 12.3-9.9 14.8-2 .8-4.1 1.2-6.1 1.2z"/><path class="st0" d="M542 19.7H270c-4.4 0-8-3.6-8-8s3.6-8 8-8h272c4.4 0 8 3.6 8 8s-3.6 8-8 8zm0 96H438c-4.4 0-8-3.6-8-8s3.6-8 8-8h104c4.4 0 8 3.6 8 8s-3.6 8-8 8zm-136 0H270c-4.4 0-8-3.6-8-8s3.6-8 8-8h136c4.4 0 8 3.6 8 8s-3.6 8-8 8zm136 48H270c-4.4 0-8-3.6-8-8s3.6-8 8-8h272c4.4 0 8 3.6 8 8s-3.6 8-8 8zm-224-96h-48c-4.4 0-8-3.6-8-8s3.6-8 8-8h48c4.4 0 8 3.6 8 8s-3.6 8-8 8zm224 0H350c-4.4 0-8-3.6-8-8s3.6-8 8-8h192c4.4 0 8 3.6 8 8s-3.6 8-8 8z"/><path class="st0" d="M254 288.3c-2.1 0-4.1-.4-6.1-1.2-6-2.5-9.9-8.3-9.9-14.8v-47.1c-23.5-7-40-28.5-40-53.6v-176c0-30.9 25.1-56 56-56h304c30.9 0 56 25.1 56 56v176c0 30.9-25.1 56-56 56H321.3l-56 56c-3.1 3.1-7.1 4.7-11.3 4.7zm0-332.6c-22.1 0-40 17.9-40 40v176c0 19.2 14.3 36.2 33.3 39.4 3.8.7 6.7 4 6.7 7.9v53.4l58.3-58.3c1.5-1.5 3.5-2.3 5.7-2.3h240c22.1 0 40-17.9 40-40v-176c0-22.1-17.9-40-40-40l-304-.1z"/></svg>