<svg id="Layer_1" xmlns="http://www.w3.org/2000/svg" viewBox="198 -222 512 512"><style>.st0{fill:#e1d454}</style><path class="st0" d="M539.3 51.1c75.3 0 136.5-61.3 136.5-136.5S614.6-222 539.3-222 402.8-160.8 402.8-85.5 464.1 51.1 539.3 51.1zm0-256c65.9 0 119.5 53.6 119.5 119.5S605.2 34 539.3 34 419.9-19.6 419.9-85.5s53.6-119.4 119.4-119.4zm166.1 341.3c-9.4-16.3-30.4-21.9-46.1-12.8l-98.2 47.8c-15.3 7.6-30.7 7.6-64.5 7.6-33 0-83.4-8.3-83.9-8.4-4.7-.8-9.1 2.4-9.8 7-.8 4.7 2.4 9.1 7 9.8 2.1.4 52.3 8.7 86.7 8.7 35.4 0 53.2 0 72-9.4l98.7-48.1c3.9-2.3 8.5-2.9 13-1.7 4.4 1.2 8.1 4 10.4 8 2.3 4 2.9 8.5 1.7 13s-4 8.1-8.2 10.5l-115.4 71.8c-.2.2-24.9 15.7-80.6 15.7-48.4 0-123.1-41.2-124.2-41.8-.8-.4-19.3-9.4-55-9.4-4.7 0-8.5 3.8-8.5 8.5s3.8 8.5 8.5 8.5c31 0 47 7.5 47.1 7.5 3.2 1.8 79.3 43.7 132.1 43.7 61.6 0 88.9-17.7 89.8-18.4l115-71.6c7.9-4.6 13.5-11.9 15.9-20.7 2.3-8.7 1.1-17.9-3.5-25.8z"/><path class="st0" d="M539.3-42.8c-9.4 0-17.1-7.7-17.1-17.1 0-4.7-3.8-8.5-8.5-8.5s-8.5 3.8-8.5 8.5c0 15.9 10.9 29.1 25.6 32.9v1.2c0 4.7 3.8 8.5 8.5 8.5s8.5-3.8 8.5-8.5V-27c14.7-3.8 25.6-17.1 25.6-32.9 0-18.8-15.3-34.1-34.1-34.1-9.4 0-17.1-7.7-17.1-17.1 0-9.4 7.7-17.1 17.1-17.1 9.4 0 17.1 7.7 17.1 17.1 0 4.7 3.8 8.5 8.5 8.5s8.5-3.8 8.5-8.5c0-15.9-10.9-29.1-25.6-32.9v-1.2c0-4.7-3.8-8.5-8.5-8.5s-8.5 3.8-8.5 8.5v1.2c-14.7 3.8-25.6 17.1-25.6 32.9 0 18.8 15.3 34.1 34.1 34.1 9.4 0 17.1 7.7 17.1 17.1 0 9.4-7.7 17.1-17.1 17.1zM257.7 51.1h-51.2c-4.7 0-8.5 3.8-8.5 8.5s3.8 8.5 8.5 8.5h51.2c4.7 0 8.5 3.8 8.5 8.5v187.7c0 4.7-3.8 8.5-8.5 8.5h-51.2c-4.7 0-8.5 3.8-8.5 8.5s3.8 8.5 8.5 8.5h51.2c14.1 0 25.6-11.5 25.6-25.6V76.7c0-14.2-11.5-25.6-25.6-25.6zm51.2 51.2h68.3c10 0 26.9 12.7 41.8 23.9 18.7 14 36.4 27.3 52.1 27.3h51.2c13 0 19.4 5.9 19.6 6 1.7 1.7 3.8 2.5 6 2.5s4.4-.8 6-2.5c3.3-3.3 3.3-8.7 0-12.1-1.1-1.1-11.6-11-31.6-11h-51.2c-10 0-26.9-12.7-41.8-23.9-18.7-14-36.4-27.3-52.1-27.3h-68.3c-4.7 0-8.5 3.8-8.5 8.5s3.8 8.6 8.5 8.6z"/><path class="st0" d="M240.7 234.5c0-7.1-5.7-12.8-12.8-12.8-7.1 0-12.8 5.7-12.8 12.8 0 7.1 5.7 12.8 12.8 12.8 7 0 12.8-5.7 12.8-12.8z"/></svg>