<svg id="Layer_1" xmlns="http://www.w3.org/2000/svg" viewBox="198 -222 512 512"><style>.st0{fill:#e1d454}</style><path class="st0" d="M364.3 204.1h281.6c4.1 0 7.5-3.4 7.5-7.5s-3.4-7.5-7.5-7.5H364.3c-4.1 0-7.5 3.4-7.5 7.5s3.3 7.5 7.5 7.5zm0-251.6H389c4.1 0 7.5-3.4 7.5-7.5s-3.4-7.5-7.5-7.5h-24.7c-4.1 0-7.5 3.4-7.5 7.5s3.3 7.5 7.5 7.5zm0 62.9H389c4.1 0 7.5-3.4 7.5-7.5S393.1.4 389 .4h-24.7c-4.1 0-7.5 3.4-7.5 7.5s3.3 7.5 7.5 7.5zm0 62.9H389c4.1 0 7.5-3.4 7.5-7.5s-3.4-7.5-7.5-7.5h-24.7c-4.1 0-7.5 3.4-7.5 7.5s3.3 7.5 7.5 7.5zm0 62.9H389c4.1 0 7.5-3.4 7.5-7.5s-3.4-7.5-7.5-7.5h-24.7c-4.1 0-7.5 3.4-7.5 7.5s3.3 7.5 7.5 7.5zm88.7 0h157c7.8 0 14.1-6.3 14.1-14.1V9.6h9.4c4.3 0 8-2.7 9.3-6.8 1.3-4.1-.2-8.4-3.7-10.9L537-78.7c-3.3-2.3-7.8-2.3-11 0L424-8.1c-3.5 2.4-5 6.8-3.7 10.9 1.3 4.1 5 6.8 9.2 6.8h9.4V127c0 7.8 6.3 14.2 14.1 14.2zm96.8-15h-36.6V62.8h36.6v63.4zm59.3 0h-44.3V61.6c0-7.6-6.2-13.8-13.8-13.8h-39c-7.6 0-13.8 6.2-13.8 13.8v64.6h-44.3V9.6h155.2v116.6zM531.5-64.3l85 58.9h-170l85-58.9z"/><path class="st0" d="M702.5-84.1c4.1 0 7.5-3.4 7.5-7.5V-119c0-14.9-12.1-27.1-27-27.1H316.7v-.3c0-32.8-26.6-59.5-59.3-59.5S198-179.2 198-146.5V88.2c0 4.1 3.4 7.5 7.5 7.5s7.5-3.4 7.5-7.5v-234.6c0-24.5 19.9-44.5 44.3-44.5s44.3 20 44.3 44.5v321.3c-1-1.2-2.1-2.3-3.2-3.4-10.3-9.9-23.5-15.7-37.7-16.5h-.9c-.7 0-1.5-.1-2.2-.1h-3.1c-.4 0-.8 0-1.2.1-.6 0-1.3.1-1.9.2-.4 0-.8.1-1.3.1-.6.1-1.2.2-1.7.2-.5.1-.9.1-1.4.2l-1.5.3c-.5.1-1 .2-1.6.3-.3.1-.7.2-1 .3-11.8 2.9-22.2 9.4-30 18.2v-56.4c0-4.1-3.4-7.5-7.5-7.5s-7.5 3.4-7.5 7.5v96.2c.1 15.4 5.9 29.9 16.6 41 11.3 11.7 26.5 18.2 42.7 18.2H683c14.9 0 27-12.2 27-27.1V-60.4c0-4.1-3.4-7.5-7.5-7.5s-7.5 3.4-7.5 7.5v307.2c0 6.7-5.4 12.1-12 12.1H257.3c-12.1 0-23.5-4.8-31.9-13.6-8.3-8.7-12.7-20-12.4-32.1v-.8c0-.4.1-.9.1-1.3 0-.3 0-.6.1-.9 0-.4.1-.8.1-1.2 0-.3.1-.6.1-.9.1-.4.1-.8.2-1.3 0-.3.1-.6.1-.8.1-.5.2-.9.3-1.4.1-.2.1-.5.2-.7.1-.5.3-1 .4-1.5 0-.2.1-.3.1-.5.2-.6.3-1.1.5-1.7 0-.1.1-.2.1-.2 4.2-12.4 13.7-22.3 25.8-27.1.1 0 .1 0 .2-.1.5-.2 1.1-.4 1.6-.6.2-.1.3-.1.5-.2.5-.2.9-.3 1.4-.4.2-.1.5-.1.7-.2l1.2-.3c.3-.1.6-.2 1-.2.4-.1.7-.2 1.1-.2.4-.1.8-.1 1.1-.2.3-.1.6-.1.9-.2.4-.1.8-.1 1.3-.2.3 0 .6-.1.9-.1.4 0 .9-.1 1.3-.1.3 0 .6 0 .9-.1h4.5c.5 0 1.1.1 1.6.1h.5l2.1.3c19.8 3 35.3 19.2 37.4 39.4.2 1.5.2 3 .2 4.6v.2c0 .3 0 .5.1.8 0 .1 0 .2.1.3 0 .3.1.5.2.8 0 .1 0 .1.1.2.1.3.2.6.3.8 0 .1.1.2.1.3.1.2.2.5.4.7 0 .1.1.1.1.2.2.2.3.5.5.7.1.1.1.2.2.2.2.2.4.4.6.5l.2.2c.2.2.4.3.7.5.1.1.2.1.2.1.3.2.6.3.9.4h.1c.3.1.6.2.8.3.1 0 .2 0 .2.1.3.1.6.1 1 .2h1.2c.3 0 .6-.1.9-.1h.1c.3-.1.6-.2 1-.3.1 0 .1 0 .2-.1.3-.1.6-.2.9-.4h.1c.3-.2.6-.3.8-.5.1 0 .1-.1.2-.1.3-.2.5-.4.8-.7l.1-.1c.2-.2.3-.3.4-.5 0-.1.1-.1.1-.2.1-.1.2-.3.3-.4 0-.1.1-.1.1-.2.1-.2.2-.3.3-.5 0 0 0-.1.1-.1l.3-.6v-.1c.1-.2.2-.4.2-.6v-.1c.1-.2.1-.4.2-.6v-.2c0-.2.1-.4.1-.5v-346.3H683c6.6 0 12 5.4 12 12.1V-92c0 4.5 3.4 7.9 7.5 7.9z"/></svg>